<svg xmlns="http://www.w3.org/2000/svg" viewBox="0 0 502.56 358.76"><defs><style>.cls-1,.cls-2{fill:#fff;}.cls-1,.cls-3{stroke:#000;}.cls-1,.cls-2,.cls-3{stroke-miterlimit:10;}.cls-2{stroke:#020101;}.cls-3{fill:none;}</style></defs><title>logo</title><g id="Layer_2" data-name="Layer 2"><path class="cls-1" d="M660.5,474.5l-38-66s104-115-48-172h-155v68h28v168h-28v69h124v-69h-29v-36h44l22,37h-20v68h124v-67Zm15,56h-104v-48h26l-32-59h-61v58h30v49h-106v-49h31v-188h-31v-47h140c142,51,41,162,41,162l42,74h24Z" transform="translate(-419 -193.24)"/><path class="cls-1" d="M917.5,428.5c-9-34-39-51-39-51-15-13-55-20-55-20-30-3-44-12-44-12-19-9-16-21-16-21,2-17,16-20,16-20,34-1,35,3,35,3,26,5,37,29,37,29h64v-98h-64v10c-12-11-51-13-51-13-37-1-52,10-52,10-35,15-46,51-46,51-14,37,7,75,7,75,22,33,66,45,66,45,42,8,56,13,56,13,29,15,25,26,25,26-1,9-11,14-11,14-19,11-44,3-44,3-18-6-39-31-39-31h-63v101h139c21-1,45-17,45-17,21-10,34-43,34-43C925.5,454.5,917.5,428.5,917.5,428.5Zm-6,33s-4,42-37,58c0,0-17,10-33,13h-131v-81h49s23,31,52,33c0,0,30,2,44-8,0,0,21-14,5-38,0,0-15-21-45-23,0,0-56-11-65-20,0,0-35-13-43-67,0,0,3-48,29-63,0,0,25-20,55-19,0,0,42-1,67,18v-15h48v76h-49s-21-32-62-32c0,0-30-2-40,22,0,0-8,26,17,38,0,0,11,10,38,12,0,0,48,6,71,28C881.5,393.5,915.5,418.5,911.5,461.5Z" transform="translate(-419 -193.24)"/><rect class="cls-2" x="415.19" y="211.32" width="55.45" height="7.11" transform="translate(-450.96 151.39) rotate(-41.16)"/><circle class="cls-3" cx="128.79" cy="140.5" r="62.91"/><circle class="cls-3" cx="128.79" cy="140.5" r="62.91"/><circle class="cls-1" cx="129.29" cy="140.53" r="51.18"/><circle class="cls-1" cx="128.75" cy="141" r="27.72"/><circle class="cls-1" cx="128.75" cy="141" r="22.75"/><rect class="cls-1" x="450.78" y="230.16" width="55.45" height="49.76" transform="translate(-468.6 184.75) rotate(-41.16)"/><rect class="cls-1" x="426.92" y="219.93" width="55.45" height="15.64" transform="translate(-456.53 162.3) rotate(-41.16)"/><path class="cls-1" d="M542.27,265.36l-.47,0c-10.12.91-20.9-4-20.9-4l-41.74,36.5s2.8,10.09,2.06,19.25v0a68.6,68.6,0,1,0,61.06-51.82ZM589.19,381.1a62.91,62.91,0,1,1,6-88.77A62.91,62.91,0,0,1,589.19,381.1Z" transform="translate(-419 -193.24)"/><path class="cls-3" d="M815.86,424.26c-3.44-.67-6.87-1.2-9.94-1.6A97.67,97.67,0,0,1,815.86,424.26Z" transform="translate(-419 -193.24)"/><path class="cls-1" d="M871.5,311.5c24-25,33-67,33-67,5-31-19-36-19-36-21-1-32,24-32,24-16,31-16,69-16,69,3,8-15,17-15,17-22,4-46,34-46,34-25,38-13,75-13,75,9,37,58,52,58,52v23c-4,25-11,27-11,27h-13c-7,0-4-7-4-7,4-8,4-12,4-12,1-18-18-20-18-20-19,0-23,18-23,18v24c13,20,37,19,37,19,22,0,30-13,30-13,10-12,7-47,7-47-1-12,4-16,4-16,13-6,19-12,19-12,7-11-1-18-1-18-5,12-14,16-14,16-6,3-4-1-4-1l1-29c-3.8-3.38-11.69-5.68-19.54-7.22,8.85,2,10.54,4.22,10.54,4.22s-2,24-2,30-8,5-8,5c-30-2-40-33-40-33-5-22,0-33,0-33,16-43,41-41,41-41,45,6,58,19,58,19-2-16-24-22-24-22-6-1-6-5-6-5v-13A169.16,169.16,0,0,0,871.5,311.5Zm-5.26-63.56s4.24-16.94,14.1-18.6c0,0,10.51-3.8,10.55,14.45,0,0,4,11.5-7.18,29.6,0,0-12.45,22.39-25.92,26.69C857.79,300.08,855.11,272.13,866.24,247.94Z" transform="translate(-419 -193.24)"/><path class="cls-1" d="M814.5,444.5v5h-5s-15-6-15-21v-7s4.88.31,11.37,1.15l-1.37-.15s-1,7,3,10C807.5,432.5,814.5,437.5,814.5,444.5Z" transform="translate(-419 -193.24)"/></g></svg>