<?xml version="1.0" encoding="utf-8"?>
<!-- Generator: Adobe Illustrator 16.0.0, SVG Export Plug-In . SVG Version: 6.00 Build 0)  -->
<!DOCTYPE svg PUBLIC "-//W3C//DTD SVG 1.1//EN" "http://www.w3.org/Graphics/SVG/1.1/DTD/svg11.dtd">
<svg version="1.1" id="Capa_1" xmlns="http://www.w3.org/2000/svg" xmlns:xlink="http://www.w3.org/1999/xlink" x="0px" y="0px"
	 width="637.96px" height="187.679px" viewBox="0 0 637.96 187.679" enable-background="new 0 0 637.96 187.679"
	 xml:space="preserve">
<g>
	<g>
		<path fill="#00467F" d="M153.07,166.906c-0.21,0.137-0.617,0.295-1.168,0.393c-0.577,0.158-1.239,0.217-1.98,0.217
			c-1.837,0-3.404-0.577-4.578-1.731c-1.161-1.154-1.745-2.859-1.745-5.109v-0.57c0-2.086,0.584-3.752,1.778-5.011
			c1.2-1.279,2.708-1.922,4.499-1.922c0.787,0,1.449,0.059,1.987,0.145c0.512,0.092,0.918,0.196,1.207,0.354v2.217
			c-0.256-0.145-0.643-0.269-1.082-0.381c-0.446-0.111-0.978-0.163-1.562-0.163c-1.161,0-2.021,0.413-2.669,1.318
			c-0.637,0.866-0.951,2.079-0.951,3.64v0.184c0,1.653,0.308,2.88,0.892,3.674c0.584,0.812,1.41,1.193,2.42,1.193
			c0.702,0,1.299-0.053,1.784-0.197c0.473-0.15,0.879-0.275,1.168-0.406V166.906z"/>
		<path fill="#00467F" d="M165.63,162.531h-7.214c0,1.188,0.308,2.014,0.807,2.473c0.551,0.473,1.232,0.708,2.105,0.708
			c0.57,0,1.154-0.079,1.725-0.235c0.597-0.145,1.2-0.361,1.823-0.637v1.771c-0.538,0.295-1.135,0.523-1.79,0.662
			c-0.649,0.177-1.41,0.242-2.257,0.242c-1.64,0-2.944-0.452-3.936-1.305c-0.938-0.879-1.442-2.139-1.442-3.811v-0.755
			c0-1.456,0.472-2.702,1.351-3.719c0.893-1.03,2.178-1.521,3.856-1.521c1.641,0,2.847,0.459,3.713,1.417
			c0.859,0.977,1.259,2.19,1.259,3.725C165.63,162.138,165.63,162.459,165.63,162.531z M162.908,161.042
			c-0.065-1.036-0.288-1.81-0.669-2.243c-0.433-0.459-0.938-0.708-1.581-0.708c-0.557,0-1.042,0.249-1.495,0.669
			c-0.439,0.466-0.655,1.213-0.701,2.282H162.908z"/>
		<path fill="#00467F" d="M177.823,167.273h-2.938v-7.425c0-0.275-0.125-0.538-0.36-0.774c-0.229-0.236-0.577-0.373-1.023-0.373
			c-0.427,0-0.78,0.104-1.122,0.262c-0.301,0.197-0.583,0.42-0.819,0.689v7.621h-2.945v-10.6h2.84l0.046,1.666
			c0.224-0.479,0.63-0.938,1.253-1.312c0.617-0.367,1.352-0.558,2.211-0.558c0.892,0,1.606,0.27,2.085,0.826
			c0.512,0.545,0.774,1.397,0.774,2.552V167.273z"/>
		<path fill="#00467F" d="M187.209,158.504h-2.813v5.45c0,0.531,0.098,0.951,0.288,1.214c0.178,0.249,0.512,0.381,1.062,0.381
			c0.249,0,0.473-0.014,0.709-0.053c0.235-0.053,0.452-0.105,0.669-0.164v1.659c-0.321,0.131-0.702,0.223-1.154,0.282
			c-0.485,0.072-0.925,0.125-1.385,0.125c-0.95,0-1.737-0.348-2.289-0.959c-0.563-0.623-0.858-1.508-0.858-2.682v-5.268h-1.253
			v-1.515l1.377-0.079l0.984-3.528h1.85v3.522h2.813V158.504z"/>
		<path fill="#00467F" d="M197.762,159.9h-2.715c0-0.314-0.072-0.563-0.203-0.793c-0.145-0.197-0.374-0.302-0.741-0.302
			c-0.354,0-0.663,0.085-0.879,0.295c-0.249,0.177-0.407,0.38-0.485,0.591v7.582h-2.952v-10.6h2.854l0.053,1.666
			c0.282-0.609,0.623-1.062,1.056-1.396c0.466-0.328,0.951-0.473,1.561-0.473c0.879,0,1.555,0.295,1.994,0.865
			C197.762,157.927,197.88,158.799,197.762,159.9z"/>
		<path fill="#00467F" d="M210.1,162.295c0,1.627-0.459,2.926-1.41,3.817c-0.925,0.931-2.243,1.403-3.877,1.403
			c-1.633,0-2.938-0.473-3.902-1.41c-0.983-0.938-1.456-2.236-1.456-3.811v-0.676c0-1.555,0.473-2.813,1.43-3.777
			c0.965-0.951,2.243-1.437,3.909-1.437c1.653,0,2.972,0.485,3.896,1.449c0.951,0.958,1.41,2.229,1.41,3.765V162.295z
			 M207.082,162.039v-0.15c0-1.449-0.196-2.408-0.662-2.926c-0.466-0.524-0.997-0.793-1.627-0.793c-0.682,0-1.22,0.281-1.64,0.846
			c-0.439,0.558-0.616,1.508-0.616,2.873v0.15c0,1.502,0.177,2.486,0.584,2.965c0.419,0.505,0.95,0.741,1.672,0.741
			c0.63,0,1.142-0.236,1.601-0.716C206.859,164.545,207.082,163.548,207.082,162.039z"/>
		<path fill="#00467F" d="M227.782,167.273h-2.827l-0.072-1.457c-0.459,0.584-0.905,0.998-1.351,1.247
			c-0.466,0.235-1.05,0.374-1.731,0.374c-1.069,0-1.936-0.374-2.65-1.05c-0.708-0.715-1.049-1.922-1.049-3.659v-1.109
			c0-1.606,0.387-2.859,1.108-3.719c0.773-0.912,1.889-1.344,3.357-1.344c0.367,0,0.774,0.02,1.188,0.124
			c0.427,0.104,0.807,0.308,1.075,0.616v-3.929h2.952V167.273z M224.83,164.289v-5.273c-0.144-0.275-0.354-0.466-0.603-0.676
			c-0.27-0.145-0.637-0.249-1.057-0.249c-0.63,0-1.115,0.249-1.488,0.774c-0.381,0.531-0.538,1.469-0.538,2.853v0.741
			c0,1.089,0.15,1.855,0.42,2.289c0.308,0.459,0.734,0.682,1.364,0.682c0.413,0,0.78-0.117,1.128-0.328
			C224.424,164.866,224.666,164.59,224.83,164.289z"/>
		<path fill="#00467F" d="M240.926,162.531h-7.201c0,1.188,0.269,2.014,0.826,2.473c0.512,0.473,1.207,0.708,2.053,0.708
			c0.584,0,1.142-0.079,1.738-0.235c0.584-0.145,1.213-0.361,1.83-0.637v1.771c-0.545,0.295-1.135,0.523-1.791,0.662
			c-0.649,0.177-1.41,0.242-2.263,0.242c-1.62,0-2.938-0.452-3.896-1.305c-0.978-0.879-1.456-2.139-1.456-3.811v-0.755
			c0-1.456,0.439-2.702,1.312-3.719c0.905-1.03,2.19-1.521,3.896-1.521c1.594,0,2.82,0.459,3.68,1.417
			c0.859,0.977,1.272,2.19,1.272,3.725C240.926,162.138,240.926,162.459,240.926,162.531z M238.211,161.042
			c-0.079-1.036-0.309-1.81-0.702-2.243c-0.406-0.459-0.905-0.708-1.535-0.708c-0.583,0-1.068,0.249-1.502,0.669
			c-0.459,0.466-0.701,1.213-0.721,2.282H238.211z"/>
		<path fill="#00467F" d="M260.393,167.273h-3.201l-1.01-3.319h-4.584l-1.057,3.319h-2.577l4.67-13.905h2.944L260.393,167.273z
			 M255.513,161.941l-1.719-5.109l-1.58,5.109H255.513z"/>
		<path fill="#00467F" d="M268.467,158.504h-2.801v5.45c0,0.531,0.085,0.951,0.249,1.214c0.203,0.249,0.564,0.381,1.069,0.381
			c0.269,0,0.512-0.014,0.754-0.053c0.243-0.053,0.459-0.105,0.63-0.164v1.659c-0.309,0.131-0.702,0.223-1.161,0.282
			c-0.459,0.072-0.885,0.125-1.338,0.125c-0.983,0-1.738-0.348-2.309-0.959c-0.558-0.623-0.866-1.508-0.866-2.682v-5.268h-1.22
			v-1.515l1.352-0.079l0.99-3.528h1.85v3.522h2.801V158.504z"/>
		<path fill="#00467F" d="M280.791,162.531h-7.195c0,1.188,0.275,2.014,0.807,2.473c0.505,0.473,1.213,0.708,2.06,0.708
			c0.57,0,1.142-0.079,1.758-0.235c0.57-0.145,1.174-0.361,1.83-0.637v1.771c-0.545,0.295-1.161,0.523-1.804,0.662
			c-0.683,0.177-1.378,0.242-2.263,0.242c-1.634,0-2.938-0.452-3.909-1.305c-0.958-0.879-1.463-2.139-1.463-3.811v-0.755
			c0-1.456,0.459-2.702,1.325-3.719c0.911-1.03,2.184-1.521,3.883-1.521c1.62,0,2.84,0.459,3.705,1.417
			c0.847,0.977,1.267,2.19,1.267,3.725C280.791,162.138,280.791,162.459,280.791,162.531z M278.075,161.042
			c-0.065-1.036-0.309-1.81-0.688-2.243c-0.413-0.459-0.938-0.708-1.567-0.708c-0.552,0-1.069,0.249-1.496,0.669
			c-0.433,0.466-0.675,1.213-0.695,2.282H278.075z"/>
		<path fill="#00467F" d="M292.957,167.273h-2.938v-7.425c0-0.275-0.111-0.538-0.354-0.774c-0.229-0.236-0.571-0.373-0.997-0.373
			c-0.453,0-0.801,0.104-1.154,0.262c-0.295,0.197-0.591,0.42-0.794,0.689v7.621h-2.944v-10.6h2.833l0.053,1.666
			c0.229-0.479,0.643-0.938,1.246-1.312c0.597-0.367,1.338-0.558,2.217-0.558c0.886,0,1.587,0.27,2.086,0.826
			c0.511,0.545,0.747,1.397,0.747,2.552V167.273z"/>
		<path fill="#00467F" d="M304.429,166.716c-0.092,0.099-0.433,0.249-1.036,0.485c-0.584,0.203-1.161,0.314-1.791,0.314
			c-1.725,0-3.076-0.452-4.105-1.352c-1.017-0.865-1.516-2.21-1.516-3.98v-0.453c0-1.606,0.485-2.893,1.502-3.869
			c0.997-0.965,2.342-1.456,4.034-1.456c0.669,0,1.259,0.099,1.784,0.256c0.577,0.171,0.944,0.36,1.128,0.544v1.896
			c-0.256-0.263-0.604-0.459-1.062-0.61c-0.427-0.164-0.898-0.256-1.423-0.256c-0.886,0-1.562,0.315-2.054,0.958
			c-0.466,0.656-0.708,1.542-0.708,2.657v0.189c0,1.253,0.184,2.132,0.59,2.663c0.374,0.524,1.011,0.794,1.87,0.794
			c0.577,0,1.114-0.105,1.659-0.27c0.577-0.184,0.944-0.348,1.128-0.524V166.716z"/>
		<path fill="#00467F" d="M310.47,154.319c0,0.433-0.145,0.8-0.459,1.108c-0.302,0.314-0.663,0.459-1.103,0.459
			c-0.426,0-0.787-0.145-1.075-0.459c-0.328-0.309-0.473-0.676-0.473-1.108c0-0.446,0.145-0.807,0.473-1.089
			c0.288-0.314,0.649-0.465,1.075-0.465c0.439,0,0.801,0.15,1.103,0.465C310.325,153.513,310.47,153.873,310.47,154.319z
			 M310.378,167.273h-2.938v-10.6h2.938V167.273z"/>
		<path fill="#00467F" d="M324.026,162.295c0,1.627-0.472,2.926-1.41,3.817c-0.978,0.931-2.27,1.403-3.915,1.403
			c-1.634,0-2.912-0.473-3.909-1.41c-0.951-0.938-1.43-2.236-1.43-3.811v-0.676c0-1.555,0.479-2.813,1.43-3.777
			c0.944-0.951,2.224-1.437,3.876-1.437c1.673,0,2.971,0.485,3.948,1.449c0.938,0.958,1.41,2.229,1.41,3.765V162.295z
			 M320.977,162.039v-0.15c0-1.449-0.223-2.408-0.682-2.926c-0.413-0.524-0.984-0.793-1.627-0.793c-0.656,0-1.22,0.281-1.652,0.846
			c-0.394,0.558-0.598,1.508-0.598,2.873v0.15c0,1.502,0.204,2.486,0.598,2.965c0.406,0.505,0.99,0.741,1.652,0.741
			c0.637,0,1.181-0.236,1.627-0.716C320.754,164.545,320.977,163.548,320.977,162.039z M321.561,152.516l-3.037,3.26h-1.987
			l2.303-3.26H321.561z"/>
		<path fill="#00467F" d="M336.246,167.273h-2.945v-7.425c0-0.275-0.125-0.538-0.341-0.774c-0.256-0.236-0.584-0.373-1.03-0.373
			c-0.399,0-0.807,0.104-1.135,0.262c-0.308,0.197-0.583,0.42-0.839,0.689v7.621h-2.932v-10.6h2.859l0.046,1.666
			c0.203-0.479,0.604-0.938,1.227-1.312c0.609-0.367,1.371-0.558,2.256-0.558c0.853,0,1.562,0.27,2.073,0.826
			c0.491,0.545,0.761,1.397,0.761,2.552V167.273z"/>
		<path fill="#00467F" d="M355.424,167.273h-1.377l-6.934-8.724v8.724h-2.249v-13.905h1.679l6.611,8.231v-8.231h2.27V167.273z"/>
		<path fill="#00467F" d="M367.879,167.273h-2.827l-0.065-1.641c-0.348,0.473-0.826,0.887-1.43,1.273
			c-0.584,0.387-1.338,0.584-2.224,0.584c-0.833,0-1.476-0.264-1.947-0.755c-0.473-0.479-0.715-1.351-0.715-2.637v-7.425h2.944
			v7.156c0,0.563,0.092,0.918,0.328,1.128c0.249,0.196,0.551,0.269,0.865,0.269c0.46,0,0.84-0.072,1.201-0.223
			c0.348-0.164,0.669-0.414,0.898-0.715v-7.615h2.971V167.273z"/>
		<path fill="#00467F" d="M377.238,158.504h-2.801v5.45c0,0.531,0.092,0.951,0.275,1.214c0.19,0.249,0.538,0.381,1.063,0.381
			c0.255,0,0.491-0.014,0.754-0.053c0.229-0.053,0.439-0.105,0.63-0.164v1.659c-0.328,0.131-0.722,0.223-1.168,0.282
			c-0.445,0.072-0.905,0.125-1.331,0.125c-0.964,0-1.745-0.348-2.342-0.959c-0.531-0.623-0.819-1.508-0.819-2.682v-5.268h-1.272
			v-1.515l1.39-0.079l0.997-3.528h1.823v3.522h2.801V158.504z"/>
		<path fill="#00467F" d="M387.812,159.9h-2.735c0-0.314-0.072-0.563-0.19-0.793c-0.111-0.197-0.367-0.302-0.78-0.302
			c-0.314,0-0.609,0.085-0.846,0.295c-0.243,0.177-0.407,0.38-0.466,0.591v7.582h-2.945v-10.6h2.834l0.065,1.666
			c0.249-0.609,0.63-1.062,1.082-1.396c0.427-0.328,0.944-0.473,1.521-0.473c0.893,0,1.562,0.295,1.994,0.865
			C387.812,157.927,387.949,158.799,387.812,159.9z"/>
		<path fill="#00467F" d="M392.928,154.319c0,0.433-0.125,0.8-0.453,1.108c-0.295,0.314-0.688,0.459-1.095,0.459
			c-0.439,0-0.808-0.145-1.076-0.459c-0.321-0.309-0.472-0.676-0.472-1.108c0-0.446,0.15-0.807,0.472-1.089
			c0.269-0.314,0.637-0.465,1.076-0.465c0.406,0,0.8,0.15,1.095,0.465C392.803,153.513,392.928,153.873,392.928,154.319z
			 M392.836,167.273h-2.938v-10.6h2.938V167.273z"/>
		<path fill="#00467F" d="M404.268,166.716c-0.085,0.099-0.439,0.249-1.05,0.485c-0.558,0.203-1.147,0.314-1.771,0.314
			c-1.725,0-3.069-0.452-4.1-1.352c-0.996-0.865-1.521-2.21-1.521-3.98v-0.453c0-1.606,0.525-2.893,1.496-3.869
			c0.996-0.965,2.334-1.456,4.014-1.456c0.682,0,1.292,0.099,1.823,0.256c0.558,0.171,0.932,0.36,1.108,0.544v1.896
			c-0.249-0.263-0.616-0.459-1.05-0.61c-0.433-0.164-0.904-0.256-1.43-0.256c-0.879,0-1.567,0.315-2.046,0.958
			c-0.499,0.656-0.709,1.542-0.709,2.657v0.189c0,1.253,0.184,2.132,0.584,2.663c0.361,0.524,0.997,0.794,1.856,0.794
			c0.577,0,1.135-0.105,1.686-0.27c0.551-0.184,0.932-0.348,1.108-0.524V166.716z"/>
		<path fill="#00467F" d="M410.282,154.319c0,0.433-0.125,0.8-0.446,1.108c-0.302,0.314-0.649,0.459-1.075,0.459
			c-0.413,0-0.801-0.145-1.103-0.459c-0.308-0.309-0.459-0.676-0.459-1.108c0-0.446,0.151-0.807,0.459-1.089
			c0.302-0.314,0.689-0.465,1.103-0.465c0.426,0,0.773,0.15,1.075,0.465C410.157,153.513,410.282,153.873,410.282,154.319z
			 M410.242,167.273h-2.957v-10.6h2.957V167.273z"/>
		<path fill="#00467F" d="M423.865,162.295c0,1.627-0.485,2.926-1.416,3.817c-0.984,0.931-2.23,1.403-3.903,1.403
			c-1.633,0-2.905-0.473-3.902-1.41c-0.964-0.938-1.437-2.236-1.437-3.811v-0.676c0-1.555,0.473-2.813,1.404-3.777
			c0.971-0.951,2.289-1.437,3.935-1.437c1.666,0,2.919,0.485,3.903,1.449c0.931,0.958,1.416,2.229,1.416,3.765V162.295z
			 M420.822,162.039v-0.15c0-1.449-0.197-2.408-0.662-2.926c-0.453-0.524-0.978-0.793-1.614-0.793c-0.682,0-1.239,0.281-1.646,0.846
			c-0.427,0.558-0.637,1.508-0.637,2.873v0.15c0,1.502,0.21,2.486,0.616,2.965c0.407,0.505,0.965,0.741,1.666,0.741
			c0.637,0,1.142-0.236,1.607-0.716C420.619,164.545,420.822,163.548,420.822,162.039z"/>
		<path fill="#00467F" d="M436.078,167.273h-2.945v-7.425c0-0.275-0.111-0.538-0.354-0.774c-0.243-0.236-0.564-0.373-0.984-0.373
			c-0.452,0-0.819,0.104-1.128,0.262c-0.341,0.197-0.63,0.42-0.853,0.689v7.621h-2.926v-10.6h2.827l0.053,1.666
			c0.21-0.479,0.63-0.938,1.239-1.312c0.623-0.367,1.357-0.558,2.23-0.558c0.892,0,1.587,0.27,2.092,0.826
			c0.492,0.545,0.748,1.397,0.748,2.552V167.273z"/>
		<path fill="#00467F" d="M448.311,167.273h-2.768l-0.053-1.385c-0.224,0.459-0.591,0.82-1.142,1.096
			c-0.524,0.289-1.167,0.426-1.862,0.426c-1.161,0-2.079-0.288-2.67-0.858c-0.604-0.623-0.905-1.509-0.905-2.709v-0.19
			c0-1.193,0.413-2.086,1.24-2.754c0.787-0.637,1.876-0.938,3.2-0.938c0.413,0,0.826,0.053,1.233,0.164
			c0.394,0.124,0.682,0.295,0.886,0.452v-1.029c0-0.381-0.164-0.682-0.512-0.932c-0.309-0.275-0.813-0.381-1.404-0.381
			c-0.648,0-1.232,0.092-1.744,0.217c-0.519,0.151-0.944,0.348-1.318,0.564v-1.836c0.492-0.197,1.01-0.355,1.606-0.506
			c0.598-0.117,1.332-0.203,2.197-0.203c1.358,0,2.375,0.309,3.018,0.925c0.676,0.623,0.997,1.62,0.997,2.938V167.273z
			 M445.477,163.744v-0.288c0-0.636-0.157-1.135-0.472-1.47c-0.275-0.341-0.709-0.505-1.318-0.505c-0.551,0-0.99,0.164-1.306,0.473
			c-0.341,0.341-0.492,0.826-0.492,1.502v0.302c0,0.721,0.185,1.2,0.538,1.41c0.321,0.262,0.755,0.381,1.292,0.381
			c0.427,0,0.866-0.158,1.227-0.434C445.307,164.807,445.477,164.374,445.477,163.744z"/>
		<path fill="#00467F" d="M454.652,167.273h-2.925v-13.905h2.925V167.273z"/>
		<path fill="#00467F" d="M467.239,167.273h-3.155v-13.905h3.155V167.273z"/>
		<path fill="#00467F" d="M480.429,167.273h-2.964v-7.425c0-0.275-0.105-0.538-0.374-0.774c-0.21-0.236-0.551-0.373-0.984-0.373
			c-0.439,0-0.846,0.104-1.141,0.262c-0.321,0.197-0.591,0.42-0.813,0.689v7.621h-2.945v-10.6h2.847l0.06,1.666
			c0.209-0.479,0.59-0.938,1.232-1.312c0.597-0.367,1.345-0.558,2.23-0.558c0.865,0,1.574,0.27,2.072,0.826
			c0.512,0.545,0.78,1.397,0.78,2.552V167.273z"/>
		<path fill="#00467F" d="M490.097,153.873l-0.748,1.574c-0.189-0.145-0.38-0.242-0.57-0.328c-0.171-0.085-0.406-0.124-0.688-0.124
			c-0.453,0-0.734,0.124-0.872,0.36c-0.158,0.25-0.21,0.63-0.21,1.121v0.414h1.987v1.613h-2.027v8.77h-2.938v-8.783h-1.377v-1.6
			h1.449v-0.314c0-1.05,0.296-1.883,0.886-2.506c0.637-0.584,1.456-0.898,2.512-0.898c0.492,0,0.958,0.065,1.431,0.189
			C489.401,153.493,489.775,153.67,490.097,153.873z"/>
		<path fill="#00467F" d="M499.594,167.273h-2.748l-0.053-1.385c-0.216,0.459-0.616,0.82-1.16,1.096
			c-0.506,0.289-1.148,0.426-1.87,0.426c-1.167,0-2.053-0.288-2.676-0.858c-0.59-0.623-0.886-1.509-0.886-2.709v-0.19
			c0-1.193,0.414-2.086,1.233-2.754c0.78-0.637,1.856-0.938,3.233-0.938c0.4,0,0.801,0.053,1.214,0.164
			c0.399,0.124,0.695,0.295,0.879,0.452v-1.029c0-0.381-0.171-0.682-0.519-0.932c-0.314-0.275-0.793-0.381-1.416-0.381
			c-0.644,0-1.24,0.092-1.719,0.217c-0.512,0.151-0.971,0.348-1.338,0.564v-1.836c0.498-0.197,1.017-0.355,1.64-0.506
			c0.583-0.117,1.338-0.203,2.171-0.203c1.351,0,2.381,0.309,3.043,0.925c0.663,0.623,0.971,1.62,0.971,2.938V167.273z
			 M496.761,163.744v-0.288c0-0.636-0.132-1.135-0.459-1.47c-0.296-0.341-0.722-0.505-1.345-0.505c-0.545,0-0.997,0.164-1.286,0.473
			c-0.341,0.341-0.498,0.826-0.498,1.502v0.302c0,0.721,0.177,1.2,0.524,1.41c0.354,0.262,0.755,0.381,1.292,0.381
			c0.46,0,0.873-0.158,1.24-0.434C496.59,164.807,496.761,164.374,496.761,163.744z"/>
		<path fill="#00467F" d="M512.141,167.273h-2.944v-7.425c0-0.275-0.125-0.538-0.374-0.774c-0.236-0.236-0.544-0.373-0.997-0.373
			c-0.42,0-0.794,0.104-1.121,0.262c-0.315,0.197-0.591,0.42-0.827,0.689v7.621h-2.932v-10.6h2.827l0.046,1.666
			c0.223-0.479,0.643-0.938,1.233-1.312c0.59-0.367,1.351-0.558,2.256-0.558c0.859,0,1.555,0.27,2.066,0.826
			c0.505,0.545,0.767,1.397,0.767,2.552V167.273z"/>
		<path fill="#00467F" d="M521.507,158.504h-2.826v5.45c0,0.531,0.111,0.951,0.295,1.214c0.196,0.249,0.538,0.381,1.056,0.381
			c0.275,0,0.519-0.014,0.722-0.053c0.263-0.053,0.472-0.105,0.682-0.164v1.659c-0.321,0.131-0.701,0.223-1.16,0.282
			c-0.446,0.072-0.912,0.125-1.371,0.125c-0.964,0-1.726-0.348-2.309-0.959c-0.551-0.623-0.833-1.508-0.833-2.682v-5.268h-1.26
			v-1.515l1.364-0.079l0.997-3.528h1.817v3.522h2.826V158.504z"/>
		<path fill="#00467F" d="M527.089,154.319c0,0.433-0.157,0.8-0.433,1.108c-0.322,0.314-0.683,0.459-1.122,0.459
			c-0.42,0-0.807-0.145-1.102-0.459c-0.296-0.309-0.453-0.676-0.453-1.108c0-0.446,0.157-0.807,0.453-1.089
			c0.295-0.314,0.682-0.465,1.102-0.465c0.439,0,0.8,0.15,1.122,0.465C526.932,153.513,527.089,153.873,527.089,154.319z
			 M526.997,167.273h-2.926v-10.6h2.926V167.273z"/>
		<path fill="#00467F" d="M533.457,167.273h-2.964v-13.905h2.964V167.273z"/>
		<path fill="#00467F" d="M553.481,167.273h-3.24l-0.997-3.319h-4.591l-1.056,3.319h-2.532l4.657-13.905h2.912L553.481,167.273z
			 M548.569,161.941l-1.719-5.109l-1.581,5.109H548.569z"/>
		<path fill="#00467F" d="M564.802,167.273h-2.944v-7.425c0-0.275-0.125-0.538-0.367-0.774c-0.217-0.236-0.552-0.373-1.011-0.373
			c-0.413,0-0.787,0.104-1.102,0.262c-0.341,0.197-0.597,0.42-0.833,0.689v7.621h-2.925v-10.6h2.826l0.046,1.666
			c0.203-0.479,0.643-0.938,1.246-1.312c0.598-0.367,1.325-0.558,2.211-0.558c0.905,0,1.587,0.27,2.099,0.826
			c0.505,0.545,0.754,1.397,0.754,2.552V167.273z"/>
		<path fill="#00467F" d="M574.175,158.504h-2.801v5.45c0,0.531,0.085,0.951,0.282,1.214c0.184,0.249,0.563,0.381,1.069,0.381
			c0.229,0,0.491-0.014,0.747-0.053c0.21-0.053,0.427-0.105,0.623-0.164v1.659c-0.321,0.131-0.695,0.223-1.187,0.282
			c-0.427,0.072-0.893,0.125-1.312,0.125c-0.977,0-1.751-0.348-2.302-0.959c-0.564-0.623-0.84-1.508-0.84-2.682v-5.268h-1.285
			v-1.515l1.357-0.079l0.99-3.528h1.856v3.522h2.801V158.504z"/>
		<path fill="#00467F" d="M581.658,152.516l-3.011,3.26h-2.007l2.309-3.26H581.658z M579.685,167.273h-2.933v-10.6h2.933V167.273z"
			/>
		<path fill="#00467F" d="M598.573,167.273h-2.938v-7.425c0-0.302-0.138-0.571-0.387-0.794c-0.269-0.242-0.57-0.354-0.951-0.354
			c-0.472,0-0.853,0.111-1.193,0.314c-0.309,0.236-0.59,0.498-0.8,0.833v7.425h-2.938v-7.425c0-0.302-0.105-0.571-0.342-0.794
			c-0.235-0.242-0.577-0.354-1.003-0.354c-0.452,0-0.847,0.104-1.2,0.262c-0.263,0.184-0.551,0.42-0.774,0.689v7.621h-2.938v-10.6
			h2.834l0.039,1.666c0.341-0.577,0.78-1.043,1.338-1.364c0.61-0.354,1.286-0.505,2.125-0.505c0.729,0,1.312,0.15,1.738,0.518
			c0.433,0.348,0.761,0.834,0.938,1.463c0.387-0.773,0.865-1.299,1.456-1.555c0.563-0.275,1.213-0.42,1.993-0.426
			c0.866-0.046,1.574,0.27,2.171,0.898c0.531,0.609,0.833,1.437,0.833,2.427V167.273z"/>
		<path fill="#00467F" d="M610.596,167.273h-2.78l-0.021-1.385c-0.242,0.459-0.623,0.82-1.134,1.096
			c-0.564,0.289-1.194,0.426-1.902,0.426c-1.161,0-2.047-0.288-2.656-0.858c-0.584-0.623-0.886-1.509-0.886-2.709v-0.19
			c0-1.193,0.374-2.086,1.174-2.754c0.82-0.637,1.876-0.938,3.26-0.938c0.407,0,0.82,0.053,1.227,0.164
			c0.394,0.124,0.676,0.295,0.859,0.452v-1.029c0-0.381-0.164-0.682-0.485-0.932c-0.348-0.275-0.8-0.381-1.384-0.381
			c-0.649,0-1.24,0.092-1.777,0.217c-0.505,0.151-0.932,0.348-1.325,0.564v-1.836c0.485-0.197,1.056-0.355,1.64-0.506
			c0.591-0.117,1.318-0.203,2.158-0.203c1.396,0,2.407,0.309,3.043,0.925c0.656,0.623,0.99,1.62,0.99,2.938V167.273z
			 M607.77,163.744v-0.288c0-0.636-0.164-1.135-0.446-1.47c-0.302-0.341-0.761-0.505-1.352-0.505c-0.544,0-0.977,0.164-1.324,0.473
			c-0.302,0.341-0.473,0.826-0.473,1.502v0.302c0,0.721,0.171,1.2,0.505,1.41c0.354,0.262,0.78,0.381,1.332,0.381
			c0.439,0,0.846-0.158,1.213-0.434C607.592,164.807,607.77,164.374,607.77,163.744z"/>
		<path fill="#00467F" d="M623.149,167.273h-2.944v-7.425c0-0.275-0.132-0.538-0.374-0.774c-0.236-0.236-0.564-0.373-1.004-0.373
			c-0.413,0-0.807,0.104-1.115,0.262c-0.347,0.197-0.623,0.42-0.839,0.689v7.621h-2.945v-10.6h2.827l0.078,1.666
			c0.204-0.479,0.61-0.938,1.233-1.312c0.604-0.367,1.352-0.558,2.217-0.558c0.898,0,1.594,0.27,2.099,0.826
			c0.492,0.545,0.768,1.397,0.768,2.552V167.273z"/>
		<path fill="#00467F" d="M636.785,162.295c0,1.627-0.479,2.926-1.416,3.817c-0.951,0.931-2.237,1.403-3.903,1.403
			c-1.613,0-2.925-0.473-3.876-1.41s-1.469-2.236-1.469-3.811v-0.676c0-1.555,0.518-2.813,1.456-3.777
			c0.931-0.951,2.229-1.437,3.876-1.437c1.666,0,2.965,0.485,3.916,1.449c0.938,0.958,1.416,2.229,1.416,3.765V162.295z
			 M633.749,162.039v-0.15c0-1.449-0.217-2.408-0.683-2.926c-0.42-0.524-0.951-0.793-1.613-0.793c-0.649,0-1.2,0.281-1.62,0.846
			c-0.42,0.558-0.649,1.508-0.649,2.873v0.15c0,1.502,0.217,2.486,0.623,2.965c0.394,0.505,0.978,0.741,1.646,0.741
			c0.63,0,1.188-0.236,1.613-0.716C633.506,164.545,633.749,163.548,633.749,162.039z"/>
	</g>
	<g>
		<g>
			<path fill="#00467F" d="M235.862,139.312c0,6.52-4.388,9.767-13.216,9.767h-44.285c-26.459,0-39.721-10.127-39.721-30.394V93.145
				c0-20.011,13.262-30.013,39.721-30.013h43.57c9.234-0.026,13.872,3.266,13.872,9.864c-0.06,6.434-4.559,9.72-13.505,9.845
				h-44.272c-8.599-0.039-12.907,3.443-12.907,10.39v25.914c0,6.723,4.506,10.12,13.484,10.12l44.325,0.065
				C231.554,129.33,235.862,132.655,235.862,139.312z"/>
			<path fill="#00467F" d="M337.498,149.079c-9.005,0-13.518-3.353-13.518-10.022v-16.469l-43.858-0.066l-0.072,16.535
				c0,6.67-4.421,10.022-13.249,10.022c-8.815,0-13.21-3.3-13.21-9.911V93.559c0-20.267,13.21-30.427,39.701-30.427l43.938,0.072
				c8.842,0,13.229,3.253,13.229,9.792v66.061C350.459,145.727,346.13,149.079,337.498,149.079z M323.98,102.623V82.985h-30.446
				c-9.005,0-13.484,3.378-13.484,10.159v9.479H323.98z"/>
			<path fill="#00467F" d="M368.509,138.919V72.996c0-6.539,4.407-9.792,13.223-9.792l44.305-0.072
				c26.498,0,39.682,10.16,39.682,30.427v45.609c0,6.611-4.375,9.911-13.184,9.911c-8.874,0-13.262-3.353-13.262-10.022V93.145
				c0-6.781-4.479-10.159-13.433-10.159h-30.866v55.934c0,6.69-4.46,10.062-13.406,10.062
				C372.844,148.98,368.509,145.609,368.509,138.919z"/>
			<path fill="#F78E1E" d="M510.271,148.98c-8.966,0-13.426-3.371-13.426-10.062V82.985c-8.946,0-13.334-3.208-13.229-9.609
				c0-6.684,4.382-10.094,13.229-10.245l13.256-0.112c8.782,0.112,13.209,3.437,13.209,9.976v65.923
				C523.311,145.609,518.956,148.98,510.271,148.98z M502.893,37.874c-2.099,0.846-3.738,2.06-4.893,3.653
				c-1.181,1.581-1.771,3.24-1.771,4.972c0,1.666,0.59,3.273,1.771,4.833c1.154,1.574,2.794,2.781,4.86,3.647
				c2.046,0.853,4.218,1.312,6.506,1.312c2.237,0,4.395-0.459,6.474-1.312c2.1-0.866,3.732-2.073,4.86-3.647
				c1.147-1.561,1.726-3.167,1.726-4.833c0-1.731-0.578-3.391-1.758-4.972c-1.181-1.594-2.814-2.807-4.9-3.653
				c-2.092-0.813-4.217-1.227-6.401-1.227C507.13,36.647,504.992,37.06,502.893,37.874z"/>
			<path fill="#00467F" d="M624.986,149.079c-9.012,0-13.512-3.353-13.512-10.022v-16.469l-43.839-0.066l-0.092,16.535
				c0,6.67-4.434,10.022-13.229,10.022c-8.828,0-13.242-3.3-13.242-9.911V93.559c0-20.267,13.242-30.427,39.714-30.427l43.931,0.072
				c8.815,0,13.243,3.253,13.243,9.792v66.061C637.96,145.727,633.617,149.079,624.986,149.079z M611.475,102.623V82.985h-30.446
				c-9.012,0-13.484,3.378-13.484,10.159v9.479H611.475z"/>
		</g>
		<path fill="#FAA54E" d="M100.002,112.375c2.02,0.873,3.771,1.922,5.326,3.031c2.683-21.166-8.323-48.044-25.107-66.475
			c0,0-0.498,1.286-1.633,2.624c-1.279,1.522-2.938,3.103-2.938,3.103c8.992,15.394,11.721,34.427,7.182,45.918
			c-5.562,13.996-29.154,23.703-45.754,0.217c-9.517,8.854-3.699,29.416,10.94,40.133c0,0,0.026,0,0.033,0.027
			C70.632,154.752,93.233,132.242,100.002,112.375z"/>
		<path fill="#00467F" d="M79.873,88.561c0,11.458-8.29,20.778-18.509,20.778c-10.206,0-18.509-9.32-18.509-20.778
			c0-11.478,8.304-20.759,18.509-20.759C71.583,67.802,79.873,77.083,79.873,88.561z"/>
		<path fill="#F78E1E" d="M102.691,119.537c-17.748,43.459-63.273,38.324-72.764,1.949c-4.677-18.004-2.165-47.172,11.826-70.272
			c6.047,4.67,13.563,6.795,20.883,5.253c13.767-2.958,21.611-17.847,17.505-33.319C76.069,7.709,61.561-2.45,47.827,0.514
			C34.04,3.433,26.189,18.361,30.275,33.82c0.964,3.548,2.459,6.795,4.329,9.694C-7.176,87.563-17.5,165.653,39.635,184.799
			C89.266,201.412,127.07,141.688,102.691,119.537z"/>
	</g>
</g>
</svg>
