<?xml version="1.0" standalone="no"?>
<!DOCTYPE svg PUBLIC "-//W3C//DTD SVG 20010904//EN"
 "http://www.w3.org/TR/2001/REC-SVG-20010904/DTD/svg10.dtd">
<svg version="1.0" xmlns="http://www.w3.org/2000/svg"
 width="908.000000pt" height="901.000000pt" viewBox="0 0 908.000000 901.000000"
 preserveAspectRatio="xMidYMid meet">

<g transform="translate(0.000000,901.000000) scale(0.100000,-0.100000)"
fill="#000000" stroke="none">
<path d="M0 4505 l0 -4505 4540 0 4540 0 0 4505 0 4505 -4540 0 -4540 0 0
-4505z m4952 4187 c6 -6 31 -8 62 -5 100 10 510 -69 763 -147 513 -157 910
-360 1333 -681 369 -280 679 -611 947 -1014 298 -447 510 -967 617 -1510 100
-508 100 -1075 0 -1590 -213 -1104 -873 -2086 -1810 -2698 -715 -467 -1507
-693 -2359 -674 -365 8 -609 40 -936 122 -1092 274 -2035 993 -2595 1978 -298
523 -476 1093 -530 1697 -20 216 -14 658 10 855 45 358 128 696 253 1020 41
105 157 360 194 423 21 37 50 90 64 117 43 82 59 110 83 140 12 15 22 32 22
37 0 8 37 66 50 78 3 3 25 34 47 70 23 36 59 84 80 108 21 24 45 55 53 70 18
33 52 73 103 121 20 20 37 42 37 49 0 7 74 85 165 174 91 88 163 164 160 168
-6 10 72 73 92 76 19 3 44 25 38 34 -7 11 40 51 56 48 8 -2 13 3 12 9 -4 16
184 161 205 159 10 0 16 4 15 11 -2 7 7 18 20 24 21 12 21 11 7 -6 -14 -17
-14 -17 7 -5 12 8 20 17 17 21 -7 13 67 58 84 52 9 -4 13 -2 9 4 -9 14 11 30
142 107 352 209 764 376 1164 470 204 49 386 76 667 100 100 9 641 -1 652 -12z"/>
<path d="M4319 8559 c-1057 -81 -1998 -541 -2703 -1319 -204 -225 -344 -417
-523 -720 -33 -56 -142 -276 -190 -385 -80 -179 -181 -484 -218 -650 -8 -38
-24 -109 -34 -157 -43 -191 -81 -569 -81 -808 0 -138 19 -389 40 -525 5 -33
11 -82 15 -110 24 -198 132 -588 235 -845 138 -345 328 -677 568 -990 154
-201 448 -499 653 -662 454 -359 974 -621 1499 -753 215 -54 264 -64 450 -93
167 -25 192 -27 560 -27 372 0 391 1 570 28 743 114 1402 405 1977 874 422
344 795 807 1033 1283 206 411 325 783 399 1245 24 150 27 187 37 470 30 877
-222 1719 -732 2445 -141 202 -283 367 -475 556 -334 325 -665 558 -1070 753
-231 110 -376 166 -610 234 -134 39 -214 59 -384 97 -65 14 -350 49 -495 60
-153 11 -365 11 -521 -1z m691 -95 c265 -26 492 -73 769 -161 555 -175 1019
-444 1479 -856 118 -105 239 -233 358 -377 743 -898 1049 -2027 863 -3190 -69
-430 -234 -899 -455 -1293 -69 -122 -241 -377 -338 -502 -465 -595 -1131
-1064 -1839 -1297 -207 -68 -448 -129 -587 -148 -41 -6 -97 -15 -125 -20 -114
-21 -334 -34 -550 -34 -635 1 -1206 137 -1764 419 -666 337 -1203 836 -1609
1495 -62 101 -190 353 -250 495 -113 265 -209 599 -256 885 -27 165 -29 186
-47 435 -26 362 25 869 126 1245 165 615 480 1187 912 1656 125 136 329 324
463 429 47 36 93 72 102 80 38 32 264 178 365 236 112 65 388 201 483 239 438
174 790 249 1330 284 100 7 413 -4 570 -20z"/>
<path d="M2710 6935 c-45 -26 -167 -74 -222 -89 -40 -10 -76 -12 -147 -5 -108
10 -165 0 -195 -33 -55 -60 -166 -238 -166 -266 0 -8 11 -8 38 3 20 8 64 19
97 25 33 5 83 16 110 23 53 15 68 15 240 2 124 -8 171 0 225 40 l35 26 8 -46
c4 -25 6 -125 5 -222 l-3 -178 -60 -12 c-69 -14 -223 -50 -277 -64 l-36 -9 -2
-182 c0 -99 -3 -185 -6 -190 -3 -4 -18 -8 -33 -8 l-28 0 -7 162 c-4 89 -9 164
-11 167 -3 2 -24 -1 -47 -8 -78 -22 -212 -62 -260 -78 l-48 -14 -2 -172 -3
-172 -25 -12 c-14 -6 -38 -13 -55 -15 -34 -3 -29 -25 -39 186 -3 65 -7 121
-10 123 -2 3 -42 -7 -88 -20 -46 -14 -122 -37 -170 -52 l-88 -26 0 -192 0
-193 80 -86 79 -86 1 -1007 c1 -554 -3 -1011 -7 -1015 -21 -20 -220 -53 -438
-73 l-30 -3 35 -11 c19 -6 96 -35 170 -63 74 -29 223 -83 330 -120 528 -183
871 -303 930 -325 199 -72 341 -117 354 -112 13 5 168 312 338 667 28 58 98
202 156 320 155 318 200 414 226 483 13 34 42 102 65 151 23 50 40 93 39 97
-2 4 -39 -22 -83 -57 -100 -81 -205 -158 -209 -153 -4 4 -10 1081 -7 1189 l1
55 65 43 65 42 0 133 c0 72 -3 155 -6 182 -6 49 -8 52 -70 93 -35 23 -68 42
-74 42 -6 0 -10 -46 -10 -120 0 -66 -4 -120 -8 -120 -5 0 -17 9 -29 19 -17 17
-21 36 -26 162 -6 122 -9 145 -24 154 -55 32 -214 115 -221 115 -5 0 -10 -62
-11 -137 -1 -76 -4 -139 -6 -141 -2 -2 -22 6 -44 18 -45 26 -47 36 -50 210 -1
61 -7 100 -15 108 -7 7 -59 37 -117 66 l-104 54 3 299 c2 164 1 331 -3 371 -6
65 -9 72 -28 72 -12 -1 -33 -7 -47 -15z m-270 -120 c0 -4 -7 -19 -15 -34 -19
-37 -11 -42 35 -26 42 15 50 12 50 -20 0 -26 -36 -45 -84 -45 -28 0 -38 -6
-55 -35 -16 -27 -25 -34 -43 -31 -13 3 -27 5 -32 5 -4 1 -1 12 8 26 25 38 21
48 -19 42 -38 -6 -50 3 -40 33 5 15 15 20 45 20 40 0 64 16 75 50 5 15 15 20
41 20 19 0 34 -2 34 -5z m282 -2234 l-2 -981 -39 -19 c-215 -110 -702 -272
-883 -295 l-48 -6 0 1009 0 1009 83 25 c45 14 213 62 372 107 301 84 446 126
480 140 11 4 25 4 30 0 7 -6 9 -344 7 -989z m353 875 l270 -112 0 -649 0 -650
-28 -60 c-33 -70 -74 -112 -177 -178 -77 -50 -327 -177 -348 -177 -9 0 -12
232 -12 970 0 770 3 970 13 969 6 0 134 -51 282 -113z"/>
<path d="M3980 5497 c-46 -16 -80 -68 -80 -122 0 -82 68 -139 148 -126 56 9
51 29 -7 28 -72 -1 -101 27 -101 99 0 73 20 96 93 102 59 5 73 15 35 26 -32 8
-47 7 -88 -7z"/>
<path d="M5014 5500 c-79 -32 -96 -175 -27 -229 40 -32 104 -28 144 7 27 24
33 37 37 84 5 69 -16 114 -63 134 -38 16 -60 17 -91 4z m95 -44 c47 -50 37
-136 -21 -170 l-37 -21 -28 21 c-15 12 -33 37 -40 57 -32 94 63 180 126 113z"/>
<path d="M5453 5503 c-34 -7 -81 -59 -89 -99 -9 -50 11 -109 46 -134 23 -16
41 -20 82 -18 68 4 77 27 10 25 -59 -2 -87 18 -101 70 -11 40 -1 76 31 111 17
17 33 22 70 22 50 0 64 13 26 24 -24 6 -39 6 -75 -1z"/>
<path d="M5900 5503 c-30 -11 -50 -37 -50 -64 0 -28 19 -48 79 -81 59 -32 25
-95 -44 -82 -30 5 -37 4 -33 -7 7 -21 85 -24 114 -4 21 14 25 23 22 58 -3 39
-7 44 -50 67 -53 28 -63 42 -48 71 8 14 21 19 50 19 43 0 54 14 18 24 -27 7
-37 7 -58 -1z"/>
<path d="M6793 5496 c-74 -33 -91 -157 -30 -214 37 -35 84 -44 124 -25 54 25
69 62 64 155 -3 66 -92 113 -158 84z m97 -34 c27 -22 38 -98 21 -141 -12 -27
-47 -51 -75 -51 -30 0 -65 41 -71 83 -15 97 59 162 125 109z"/>
<path d="M4140 5493 c-2 -19 -2 -181 -1 -210 l1 -33 65 0 c51 0 65 3 65 15 0
11 -12 15 -50 15 l-50 0 0 45 0 45 45 0 c33 0 45 4 45 15 0 11 -12 15 -45 15
l-45 0 0 40 0 40 50 0 c28 0 50 5 50 10 0 11 -130 14 -130 3z"/>
<path d="M4322 5380 c4 -145 22 -168 26 -32 1 50 7 92 12 92 6 0 10 -4 10 -9
0 -12 86 -151 104 -169 28 -29 36 -3 36 119 0 99 -3 119 -15 119 -12 0 -15
-16 -15 -85 0 -47 -3 -85 -8 -85 -4 0 -31 38 -61 85 -37 58 -59 85 -72 85 -18
0 -19 -8 -17 -120z"/>
<path d="M4540 5491 c0 -6 17 -11 38 -13 l37 -3 1 -103 c0 -62 5 -107 12 -114
17 -17 21 4 24 117 l3 100 33 3 c17 2 32 7 32 13 0 5 -40 9 -90 9 -49 0 -90
-4 -90 -9z"/>
<path d="M4750 5382 c0 -65 3 -122 7 -125 14 -15 33 18 33 59 0 40 2 44 24 44
29 0 41 -14 58 -65 13 -38 38 -60 38 -32 0 8 -8 39 -17 68 -13 39 -14 54 -5
57 7 2 12 22 12 47 0 54 -16 65 -94 65 l-56 0 0 -118z m117 71 c14 -20 13 -24
-11 -48 -29 -29 -65 -33 -68 -7 -1 19 -1 50 1 70 2 22 62 10 78 -15z"/>
<path d="M5580 5382 c0 -65 3 -121 6 -125 3 -3 12 -3 20 0 9 3 14 21 14 54 0
45 2 49 24 49 28 0 34 -8 56 -64 8 -21 20 -37 25 -36 14 2 8 55 -10 90 -13 25
-13 29 5 45 26 23 25 60 0 85 -16 16 -33 20 -80 20 l-60 0 0 -118z m108 86
c16 -16 15 -53 -1 -66 -6 -6 -24 -13 -40 -17 -27 -7 -27 -7 -27 44 0 49 1 51
28 51 15 0 33 -5 40 -12z"/>
<path d="M5772 5378 c3 -101 6 -123 18 -123 12 0 16 19 18 100 3 113 -2 145
-23 145 -13 0 -15 -19 -13 -122z"/>
<path d="M6010 5491 c0 -6 15 -11 33 -13 l32 -3 5 -110 c3 -60 8 -109 13 -107
4 1 10 2 15 2 4 0 7 48 7 107 l0 108 38 3 c73 6 35 22 -53 22 -49 0 -90 -4
-90 -9z"/>
<path d="M6212 5380 c4 -161 22 -163 26 -2 2 105 0 122 -13 122 -13 0 -15 -17
-13 -120z"/>
<path d="M6345 5488 c-34 -90 -73 -223 -69 -230 9 -14 32 10 39 43 6 27 10 29
53 29 46 0 48 -1 65 -42 11 -28 20 -39 27 -32 7 7 -2 48 -28 125 -32 97 -41
114 -60 117 -12 2 -24 -3 -27 -10z m43 -77 c16 -52 16 -51 -18 -51 -16 0 -30
5 -30 12 0 18 23 78 30 78 4 0 12 -17 18 -39z"/>
<path d="M6507 5493 c-9 -8 -9 -196 -1 -217 14 -36 23 -12 26 64 2 44 7 80 13
81 6 0 33 -37 62 -83 34 -55 57 -83 70 -83 16 0 18 11 21 123 2 116 2 122 -17
122 -19 0 -20 -8 -23 -92 l-3 -93 -44 75 c-63 107 -82 125 -104 103z"/>
<path d="M4467 5073 c-66 -22 -129 -81 -157 -145 -18 -42 -23 -71 -22 -137 0
-75 3 -91 33 -149 40 -78 88 -116 168 -133 107 -22 225 13 289 86 64 72 77
110 77 220 0 91 -2 104 -28 147 -51 87 -132 128 -246 127 -36 0 -88 -7 -114
-16z m191 -37 c34 -18 75 -61 98 -106 15 -28 19 -57 19 -140 0 -94 -3 -110
-26 -155 -34 -65 -87 -96 -163 -96 -126 0 -208 92 -222 250 -11 119 27 204
111 247 42 21 59 24 103 20 30 -4 66 -13 80 -20z"/>
<path d="M6095 5035 c-14 -32 -25 -59 -25 -61 0 -6 -127 -307 -157 -372 -18
-40 -32 -56 -54 -64 -52 -18 -31 -28 62 -28 68 0 90 3 87 13 -3 6 -13 14 -24
15 -36 7 -38 20 -13 92 l24 70 110 0 111 0 27 -62 c34 -80 34 -96 0 -100 -14
-2 -28 -9 -31 -15 -3 -10 21 -13 97 -13 103 0 122 8 75 32 -26 13 -33 27 -199
437 -23 58 -47 107 -53 109 -6 2 -23 -22 -37 -53z m58 -167 c19 -51 38 -101
42 -110 7 -16 -1 -18 -90 -18 -74 0 -96 3 -92 13 37 91 91 207 97 207 4 0 23
-42 43 -92z"/>
<path d="M8106 5058 c-205 -500 -208 -505 -241 -518 -52 -20 -26 -31 63 -28
49 2 87 7 87 13 0 6 -13 11 -28 13 -16 2 -30 9 -33 16 -3 7 6 42 19 77 l24 64
110 3 110 3 26 -63 c34 -80 34 -96 0 -100 -14 -2 -28 -9 -31 -15 -3 -10 21
-13 97 -13 100 0 127 10 78 29 -26 10 -23 4 -150 315 -51 127 -99 232 -105
234 -7 2 -18 -11 -26 -30z m54 -204 c22 -59 39 -108 37 -111 -3 -2 -45 -2 -95
-1 l-91 3 46 108 c25 59 49 107 54 107 4 0 26 -48 49 -106z"/>
<path d="M3870 5071 c0 -5 14 -11 30 -15 20 -4 34 -14 40 -31 6 -15 10 -118
10 -230 0 -112 -4 -215 -10 -230 -6 -17 -20 -27 -40 -31 -63 -13 -26 -24 80
-24 112 0 136 8 78 25 -29 9 -34 15 -41 59 -4 26 -7 78 -5 115 l3 66 79 3 c84
3 96 -2 96 -45 0 -13 5 -23 10 -23 6 0 10 17 10 39 0 21 3 59 6 85 6 38 4 46
-9 46 -10 0 -17 -11 -19 -27 l-3 -28 -85 0 -85 0 1 95 c0 131 0 130 76 129
105 -2 121 -9 131 -52 10 -41 27 -50 27 -14 0 12 3 39 6 60 l7 37 -197 0
c-108 0 -196 -4 -196 -9z"/>
<path d="M4890 5070 c0 -5 9 -10 19 -10 48 0 51 -16 51 -263 0 -128 -4 -237
-8 -244 -4 -6 -20 -15 -35 -18 -57 -15 -23 -25 83 -25 108 0 144 11 76 24 -19
4 -37 14 -40 22 -3 9 -6 118 -6 244 0 170 3 230 13 238 43 36 154 14 176 -34
28 -61 -1 -154 -55 -174 -14 -6 -40 -10 -58 -10 -18 0 -35 -3 -39 -6 -3 -3 20
-41 51 -83 31 -42 80 -109 107 -149 50 -71 50 -71 98 -72 26 0 47 3 47 6 0 4
-12 21 -27 38 -31 35 -173 231 -173 238 0 3 22 15 49 27 109 52 127 198 30
248 -30 16 -359 18 -359 3z"/>
<path d="M5380 5020 c0 -67 14 -80 25 -23 4 21 12 41 18 45 7 4 40 8 73 8 56
0 62 -2 68 -22 8 -30 6 -357 -2 -428 -7 -51 -9 -56 -39 -65 -59 -17 -35 -25
77 -25 112 0 136 8 78 25 -32 10 -33 12 -41 80 -13 108 -3 415 14 426 17 11
110 12 126 1 6 -4 13 -23 15 -41 2 -19 9 -36 16 -39 9 -3 12 13 12 57 l0 61
-220 0 -220 0 0 -60z"/>
<path d="M6425 5070 c-3 -6 5 -10 19 -10 58 0 56 10 56 -261 0 -213 -2 -250
-15 -255 -8 -4 -15 -12 -15 -20 0 -11 33 -14 185 -14 209 0 199 -4 207 88 6
66 -15 72 -31 8 -7 -27 -18 -47 -28 -50 -35 -10 -173 -18 -198 -12 l-25 6 0
250 c0 235 1 249 19 255 10 3 24 4 31 3 7 -2 15 3 17 10 6 15 -212 18 -222 2z"/>
<path d="M6892 5068 c3 -7 13 -15 24 -16 41 -8 44 -26 44 -261 0 -124 -4 -231
-8 -237 -4 -6 -17 -14 -29 -18 -60 -19 -10 -26 177 -26 153 0 200 3 200 13 1
6 3 36 6 65 3 40 1 53 -8 50 -7 -3 -15 -18 -19 -35 -3 -16 -9 -34 -12 -40 -9
-15 -100 -23 -168 -16 l-59 6 0 113 c0 131 1 131 99 119 65 -8 81 -18 81 -51
0 -12 4 -25 9 -29 9 -5 19 119 13 163 -4 29 -22 28 -22 -2 0 -38 -21 -47 -102
-44 l-73 3 0 110 0 110 67 3 c37 2 86 -2 108 -8 37 -10 40 -14 40 -45 0 -32
13 -54 23 -38 3 5 8 34 11 66 l7 57 -206 0 c-161 0 -206 -3 -203 -12z"/>
<path d="M7390 5013 c1 -62 2 -66 15 -49 8 11 15 32 15 47 0 24 4 27 46 33 67
9 222 7 228 -2 4 -8 -170 -261 -304 -441 -27 -38 -50 -74 -50 -80 0 -8 66 -11
229 -11 l229 0 7 65 c4 36 5 68 2 71 -12 13 -27 -9 -27 -40 0 -19 -7 -40 -16
-47 -21 -17 -314 -27 -314 -11 0 6 38 64 85 129 46 65 106 149 132 186 27 37
69 96 95 130 26 34 48 68 48 75 0 9 -49 12 -210 12 l-210 0 0 -67z"/>
<path d="M4996 4318 c-45 -127 -74 -223 -69 -231 8 -13 23 3 38 39 14 33 17
35 57 32 38 -3 43 -6 51 -35 10 -33 37 -54 37 -27 0 16 -42 153 -66 218 -11
27 -12 42 -5 49 15 15 14 27 -3 27 -8 0 -25 -29 -40 -72z m34 -53 c25 -67 24
-75 -9 -75 -17 0 -31 5 -31 11 0 16 22 89 27 89 2 0 8 -11 13 -25z"/>
<path d="M3904 4306 c-31 -31 -34 -39 -34 -94 0 -45 5 -66 21 -85 23 -31 86
-52 123 -43 41 10 31 26 -16 26 -46 1 -68 12 -86 47 -15 27 -15 88 -2 114 16
29 67 51 101 44 22 -5 29 -3 29 9 0 13 -11 16 -51 16 -45 0 -55 -4 -85 -34z"/>
<path d="M4087 4333 c-4 -3 -7 -42 -7 -85 0 -126 33 -177 106 -164 53 11 64
36 64 153 0 62 -4 103 -10 103 -6 0 -10 -33 -10 -79 0 -97 -13 -139 -48 -148
-49 -12 -57 4 -60 121 -2 79 -6 106 -16 106 -7 0 -16 -3 -19 -7z"/>
<path d="M4325 4227 c-19 -62 -35 -119 -35 -126 0 -24 25 -4 35 28 9 30 11 32
54 29 41 -3 46 -6 54 -35 10 -34 37 -54 37 -27 0 9 -16 67 -36 130 -29 93 -39
114 -54 114 -16 0 -26 -21 -55 -113z m73 14 c16 -52 16 -51 -18 -51 -33 0 -36
9 -19 59 14 41 23 39 37 -8z"/>
<path d="M4514 4327 c-2 -7 -3 -65 -2 -128 l3 -114 34 -3 c45 -5 115 23 134
52 41 62 28 154 -27 187 -37 23 -134 27 -142 6z m105 -18 c40 -14 51 -35 51
-97 0 -44 -4 -54 -31 -76 -18 -15 -43 -26 -60 -26 l-29 0 0 105 c0 116 1 118
69 94z"/>
<path d="M4757 4333 c-4 -3 -7 -60 -7 -125 0 -98 3 -118 15 -118 11 0 15 12
15 49 0 54 9 66 40 56 13 -4 25 -23 33 -53 8 -27 21 -48 30 -50 14 -3 14 2 2
45 -7 26 -16 55 -19 64 -4 9 0 21 9 29 21 18 19 66 -5 90 -20 20 -98 29 -113
13z m95 -36 c21 -34 -6 -77 -48 -77 -22 0 -24 4 -24 43 0 24 3 47 7 51 10 10
56 -3 65 -17z"/>
<path d="M5154 4327 c-11 -28 1 -230 14 -235 9 -3 12 19 12 87 0 50 3 91 8 91
4 0 27 -35 51 -78 47 -82 69 -112 83 -112 4 0 8 59 8 130 0 107 -3 130 -15
130 -11 0 -15 -19 -17 -92 l-3 -93 -54 93 c-50 87 -75 109 -87 79z"/>
<path d="M5433 4324 c-32 -16 -63 -73 -63 -115 0 -37 29 -89 62 -109 26 -16
43 -20 77 -15 25 3 48 10 52 17 4 6 7 34 6 62 l-2 51 -39 3 c-28 2 -37 0 -34
-10 3 -7 15 -14 27 -16 19 -3 22 -9 19 -40 -3 -34 -6 -37 -36 -40 -68 -7 -115
62 -92 133 15 45 48 67 102 69 24 0 43 6 43 11 0 17 -88 16 -122 -1z"/>
<path d="M5612 4236 c3 -68 9 -111 18 -122 37 -44 111 -39 141 10 15 25 19 50
19 124 0 84 -2 93 -17 90 -15 -3 -19 -18 -23 -107 -5 -113 -14 -130 -62 -118
-35 9 -48 51 -48 148 0 66 -3 79 -16 79 -15 0 -16 -13 -12 -104z"/>
<path d="M5842 4213 l3 -128 59 0 c75 0 91 22 19 27 l-48 3 -3 113 c-2 91 -5
112 -18 112 -12 0 -14 -20 -12 -127z"/>
<path d="M6066 4328 c-3 -7 -20 -62 -40 -122 -20 -60 -34 -112 -31 -114 11
-12 34 10 40 38 7 30 9 31 53 28 43 -3 47 -6 56 -35 5 -18 15 -33 22 -33 18 0
19 -4 -23 131 -29 96 -40 119 -55 119 -10 0 -20 -6 -22 -12z m33 -60 c4 -13
11 -35 15 -50 6 -26 4 -28 -24 -28 -33 0 -35 6 -19 63 12 43 16 45 28 15z"/>
<path d="M6227 4333 c-4 -3 -7 -60 -7 -125 0 -98 3 -118 15 -118 11 0 15 12
15 50 0 35 5 52 14 56 23 9 55 -14 62 -44 12 -55 16 -62 30 -62 12 0 14 7 9
33 -4 17 -13 44 -19 58 -11 21 -10 29 1 44 21 30 16 81 -9 99 -22 16 -99 22
-111 9z m93 -33 c24 -24 24 -29 4 -58 -11 -16 -24 -22 -42 -20 -22 2 -28 9
-30 36 -2 19 -1 40 2 48 8 20 43 17 66 -6z"/>
<path d="M3877 3963 c-4 -3 -7 -188 -7 -410 l0 -403 410 0 410 0 0 410 0 410
-403 0 c-222 0 -407 -3 -410 -7z m455 -155 l3 -103 129 -5 130 -5 0 -35 1 -35
-127 -3 c-92 -2 -128 -6 -129 -15 -2 -26 -5 -108 -7 -254 l-2 -153 -50 0 -50
0 -1 73 c-1 39 -4 133 -8 207 l-6 135 -122 3 c-128 3 -132 4 -129 52 l1 25
125 3 c84 2 127 7 132 15 4 7 8 51 8 98 0 47 3 89 7 92 3 4 26 7 49 7 l43 0 3
-102z"/>
<path d="M5620 3560 l0 -410 410 0 410 0 -2 408 -3 407 -407 3 -408 2 0 -410z
m624 240 c74 -37 79 -53 34 -96 -22 -20 -38 -45 -38 -58 0 -28 -61 -130 -106
-176 -47 -49 -47 -89 0 -114 19 -10 45 -30 58 -43 23 -24 23 -25 3 -39 -16
-12 -48 -15 -157 -12 -164 4 -178 11 -122 62 22 20 47 39 57 42 29 9 22 65
-13 99 -45 43 -87 113 -102 168 -8 33 -22 56 -41 69 -34 24 -33 53 4 80 53 40
98 48 239 46 121 -3 140 -6 184 -28z"/>
<path d="M6897 3962 l-397 -2 2 -403 3 -402 400 0 400 0 3 399 c1 220 -1 402
-5 405 -5 3 -187 5 -406 3z m47 -168 c19 -7 21 -46 4 -74 -10 -15 -9 -30 5
-72 16 -52 42 -98 49 -88 20 29 64 133 68 160 4 31 8 35 35 35 37 0 43 -22 15
-55 -16 -18 -20 -37 -20 -92 0 -37 2 -68 5 -68 16 0 101 107 105 134 6 35 38
47 59 22 15 -18 -2 -56 -25 -56 -18 0 -47 -65 -80 -179 -13 -46 -29 -90 -35
-97 -26 -31 -103 -49 -214 -49 -97 0 -116 3 -160 25 -50 25 -50 26 -82 120
-46 135 -64 171 -90 181 -16 6 -23 17 -23 34 0 49 62 43 68 -6 3 -23 87 -119
104 -119 4 0 8 26 8 59 0 43 -5 65 -20 84 -24 30 -25 41 -4 61 23 23 54 4 54
-34 0 -30 74 -159 82 -143 23 38 39 117 32 159 -8 57 12 76 60 58z"/>
<path d="M5475 3715 c-21 -33 -67 -90 -103 -127 -42 -44 -61 -71 -56 -79 15
-25 49 -61 65 -69 13 -8 15 -5 12 14 -5 22 14 50 86 126 40 42 60 128 42 175
-7 17 -13 12 -46 -40z"/>
<path d="M5024 3482 c1 -15 -7 -17 -64 -14 -37 1 -60 -2 -55 -7 19 -16 70 -28
103 -23 25 3 32 9 32 28 0 12 -4 25 -9 28 -5 3 -8 -2 -7 -12z"/>
<path d="M5200 3310 c37 -28 77 -43 97 -35 16 6 15 9 -10 31 -20 17 -40 24
-70 24 l-42 0 25 -20z"/>
<path d="M5465 3250 c-21 -22 -45 -40 -52 -40 -23 0 -14 -20 14 -31 29 -11 84
-3 95 15 4 6 8 30 8 54 0 54 -14 54 -65 2z"/>
<path d="M3970 3043 c-78 -8 -110 -47 -110 -134 0 -45 4 -55 35 -86 31 -31 38
-34 87 -31 64 4 66 23 3 23 -65 1 -90 28 -90 101 0 49 4 59 28 80 19 16 40 24
67 24 41 0 61 14 34 24 -9 3 -16 5 -17 4 -1 0 -18 -3 -37 -5z"/>
<path d="M4313 3042 l-33 -3 0 -125 c0 -102 3 -124 14 -124 11 0 16 15 18 52
2 42 7 54 21 56 24 5 57 -26 57 -53 0 -26 25 -63 36 -53 4 5 0 35 -9 68 -16
55 -16 63 -2 84 16 24 12 70 -6 82 -19 12 -65 19 -96 16z m71 -41 c23 -25 13
-59 -22 -72 -38 -15 -52 -5 -52 39 0 21 3 42 7 45 13 14 50 7 67 -12z"/>
<path d="M5120 3043 c-53 -20 -66 -75 -27 -111 13 -12 28 -22 33 -22 6 0 21
-11 34 -25 22 -23 22 -25 5 -51 -15 -23 -21 -26 -57 -20 -30 5 -39 3 -36 -6 7
-20 92 -22 112 -3 43 43 25 101 -42 133 -65 30 -51 82 21 82 25 0 37 4 32 9
-14 13 -57 21 -75 14z"/>
<path d="M4096 2927 c-20 -63 -36 -120 -36 -127 0 -24 24 -3 35 31 11 31 16
34 54 37 41 3 43 2 58 -37 9 -23 22 -41 30 -41 18 0 18 1 -25 130 -32 94 -43
116 -60 118 -18 3 -25 -10 -56 -111z m73 32 c17 -50 14 -59 -20 -59 -26 0 -30
3 -24 18 3 9 9 29 12 45 7 36 19 34 32 -4z"/>
<path d="M4525 3028 c-17 -47 -75 -223 -75 -230 0 -4 7 -8 15 -8 8 0 19 17 26
40 12 38 14 40 54 40 40 0 43 -2 58 -40 14 -38 37 -55 37 -28 0 7 -17 63 -37
125 -29 89 -41 113 -55 113 -10 0 -21 -6 -23 -12z m34 -60 c25 -68 25 -68 -13
-68 l-35 0 16 45 c8 25 17 45 19 45 3 0 8 -10 13 -22z"/>
<path d="M4707 3029 c-51 -30 -65 -152 -23 -204 22 -27 29 -30 85 -30 34 0 61
4 61 10 0 6 -20 10 -44 10 -66 1 -96 32 -96 99 1 73 33 106 104 106 20 0 36 5
36 10 0 13 -100 12 -123 -1z"/>
<path d="M4916 2998 c-31 -86 -66 -202 -61 -206 12 -12 35 11 41 43 6 36 7 36
52 33 42 -3 46 -6 57 -38 7 -20 20 -37 30 -39 12 -2 16 2 13 10 -3 8 -17 52
-32 99 -42 129 -47 140 -66 140 -12 0 -23 -14 -34 -42z m52 -47 c16 -52 16
-51 -18 -51 -16 0 -30 3 -30 6 0 17 24 84 30 84 4 0 12 -17 18 -39z"/>
<path d="M5310 2915 c0 -104 2 -125 15 -125 13 0 15 21 15 125 0 104 -2 125
-15 125 -13 0 -15 -21 -15 -125z"/>
<path d="M2274 7994 c-18 -14 -18 -15 4 -4 12 6 22 13 22 15 0 8 -5 6 -26 -11z"/>
</g>
</svg>
